<svg width="277" height="112" viewBox="0 0 277 112" fill="none" xmlns="http://www.w3.org/2000/svg">
<path d="M157.933 85.1732H157.044C156.929 85.1837 156.813 85.1661 156.707 85.1219C156.6 85.0776 156.506 85.0082 156.433 84.9195C156.361 84.8236 156.311 84.7126 156.288 84.595C156.265 84.4773 156.269 84.3559 156.3 84.24L157.24 79.8278L156.771 79.7616C154.029 79.3601 151.767 78.61 150.047 77.5312C148.328 76.4524 147.119 75.1773 146.408 73.7036C145.706 72.2712 145.502 70.6484 145.826 69.0884V69.0487C145.838 68.9423 145.872 68.8396 145.926 68.747C145.98 68.6543 146.052 68.5738 146.139 68.5104C146.321 68.3572 146.551 68.2722 146.79 68.2699H155.742C156.357 68.2699 156.606 68.3802 156.702 68.4442C156.954 68.6262 157.191 68.8283 157.411 69.0487C157.673 69.5003 158.007 69.907 158.399 70.2532C158.905 70.6878 159.5 71.0064 160.143 71.1864C160.945 71.418 161.777 71.5281 162.612 71.5129C164.389 71.5129 165.86 71.2658 166.96 70.7761C168.14 70.2532 168.851 69.5009 169.069 68.5435C169.169 68.1945 169.171 67.825 169.075 67.4749C168.978 67.1249 168.787 66.8077 168.522 66.558C168.036 66.0947 167.211 65.6954 166.005 65.3358C164.869 64.9982 163.339 64.6453 161.339 64.2614C158.468 63.7694 155.373 62.7634 153.629 61.7575C151.852 60.7316 150.592 59.3837 149.903 57.7489C149.214 56.1142 149.114 54.1177 149.619 51.8365C150.174 48.8948 151.768 46.2461 154.113 44.3666C157.135 41.8759 161.148 41.3023 165.036 41.0574L165.369 41.0353L166.287 36.9121C166.317 36.7543 166.377 36.6038 166.466 36.4694C166.554 36.335 166.669 36.2193 166.802 36.1289C167.044 35.9276 167.347 35.8112 167.662 35.798H173.406C173.521 35.7872 173.637 35.8049 173.744 35.8496C173.85 35.8942 173.944 35.9644 174.017 36.0539C174.09 36.1496 174.14 36.2606 174.163 36.3783C174.186 36.4961 174.181 36.6175 174.15 36.7334L173.099 41.3332L173.528 41.4347C176.29 42.0965 178.574 42.9789 179.96 43.9739C181.547 45.1012 182.722 46.3675 183.46 47.7375C184.175 49.0723 184.415 50.3562 184.175 51.5519V51.5894C184.147 51.8188 184.028 52.028 183.846 52.1719C183.673 52.3332 183.446 52.4244 183.209 52.4278L172.544 52.3483C172.238 52.3615 171.933 52.3025 171.655 52.1763C171.432 52.0498 171.243 51.8729 171.102 51.66C170.942 51.06 170.506 50.5283 169.804 50.076C169.102 49.6238 168.124 49.3877 166.916 49.3877C165.571 49.3877 164.456 49.6238 163.605 50.0849C163.181 50.2993 162.81 50.6044 162.519 50.9783C162.228 51.3521 162.023 51.7853 161.921 52.2469C161.844 52.564 161.843 52.8945 161.917 53.2123C161.991 53.53 162.139 53.8263 162.348 54.0779C162.747 54.5611 163.458 54.9604 164.525 55.309C165.913 55.7302 167.322 56.0793 168.747 56.3547H168.771C172.195 56.8687 174.892 57.6607 176.785 58.7086C178.636 59.7344 179.896 61.0603 180.529 62.6509C181.162 64.2416 181.238 66.2116 180.733 68.4597C180.009 71.8791 178.34 74.575 175.779 76.4745C173.217 78.374 169.669 79.5631 165.305 79.9668L164.978 79.9977L164.121 84.0614C164.064 84.3737 163.89 84.653 163.634 84.8423C163.405 85.0394 163.115 85.153 162.812 85.1644L157.933 85.1732Z" fill="#00D084"/>
<path d="M183.84 79.7411C183.662 79.755 183.482 79.7257 183.318 79.6558C183.153 79.5859 183.007 79.4774 182.894 79.3396C182.781 79.1936 182.702 79.0243 182.664 78.8441C182.625 78.6638 182.628 78.4774 182.672 78.2983L193.328 28.6275C193.407 28.1737 193.651 27.7645 194.014 27.4781C194.357 27.1722 194.8 27.0025 195.261 27.0016H207.508C207.695 26.9922 207.882 27.0247 208.054 27.0969C208.227 27.1691 208.381 27.2791 208.505 27.4185C208.624 27.5592 208.707 27.7256 208.748 27.9043C208.79 28.0829 208.788 28.2688 208.743 28.4466L204.873 46.3515L205.91 45.3852C207.453 43.9396 209.223 42.7546 211.152 41.8775C213.192 40.9965 215.399 40.5594 217.624 40.5957C220.512 40.5957 223.038 41.2112 225.12 42.4246C227.202 43.638 228.633 45.4492 229.477 47.8539C230.322 50.2585 230.366 53.4045 229.577 57.1196L225.014 78.113C224.934 78.5678 224.689 78.9776 224.325 79.2646C223.983 79.5639 223.543 79.7287 223.087 79.7279H210.767C210.589 79.7403 210.41 79.7103 210.245 79.6405C210.081 79.5707 209.935 79.463 209.821 79.3264C209.707 79.1806 209.628 79.0112 209.59 78.8309C209.551 78.6507 209.554 78.4641 209.598 78.2851L212.654 63.8703L213.929 58.4785C214.358 56.493 214.224 54.9487 213.531 53.8457C212.811 52.7051 211.518 52.1271 209.692 52.1271C208.559 52.1178 207.44 52.3661 206.419 52.8529C205.413 53.3396 204.537 54.0564 203.864 54.9443C203.129 55.9375 202.633 57.0846 202.413 58.2976L198.005 78.1196C197.926 78.5747 197.681 78.9851 197.318 79.2735C196.975 79.5723 196.535 79.737 196.078 79.7367L183.84 79.7411Z" fill="#00D084"/>
<path d="M112.386 79.736C109.651 79.736 107.222 79.1138 105.165 77.8828C102.963 76.5592 101.61 75.4076 100.783 73.047C99.8279 70.3313 100.103 68.0634 100.766 63.5982C100.766 63.5982 101.103 61.6987 101.383 60.139V60.1081C101.548 59.0063 102.105 57.9995 102.953 57.2708C103.802 56.5421 104.885 56.1398 106.007 56.1371C106.116 56.1371 106.229 56.1371 106.331 56.1503L118.034 56.3709C118.183 56.3706 118.331 56.4034 118.466 56.4672C118.601 56.5309 118.72 56.6239 118.814 56.7392C118.908 56.8546 118.974 56.9893 119.009 57.1337C119.044 57.278 119.045 57.4282 119.014 57.5733L117.803 63.1327C117.532 64.4564 117.478 65.6013 117.643 66.5213C117.738 67.1157 117.984 67.6765 118.356 68.1516C118.56 68.3988 118.797 68.617 119.06 68.8002C119.809 69.2965 120.694 69.55 121.593 69.526C122.419 69.5094 123.232 69.3286 123.986 68.9944C126.926 67.6376 127.743 63.2717 127.777 63.0864L132.16 42.3157C132.246 41.8504 132.506 41.4348 132.889 41.1531C133.255 40.8473 133.717 40.6773 134.196 40.6722H146.394C146.568 40.6565 146.743 40.6847 146.903 40.7541C147.063 40.8236 147.202 40.9319 147.309 41.0693L147.345 41.1178C147.532 41.427 147.589 41.7974 147.502 42.1481L139.872 78.0086C139.782 78.4628 139.539 78.873 139.183 79.1717C138.827 79.4704 138.379 79.6398 137.913 79.6521H126.641C126.459 79.6657 126.277 79.6357 126.109 79.5647C125.941 79.4936 125.793 79.3837 125.677 79.244C125.562 79.0948 125.482 78.9217 125.443 78.7376C125.405 78.5534 125.409 78.3631 125.455 78.1807L126.366 73.2301L125.324 74.3596C124.293 75.4945 123.128 76.5012 121.853 77.3578C120.617 78.1703 119.255 78.7748 117.821 79.1469C116.042 79.572 114.215 79.77 112.386 79.736Z" fill="#00D084"/>
<path d="M58.3951 45.6523C58.0776 45.6514 57.7635 45.5885 57.4705 45.4671C57.1776 45.3456 56.9116 45.1681 56.6877 44.9446C56.2356 44.4932 55.9826 43.882 55.9844 43.2454C55.9862 42.6088 56.2425 41.999 56.6971 41.5501C57.1517 41.1012 57.7673 40.85 58.4084 40.8518H61.8812C62.3388 40.8458 62.7891 40.9664 63.1815 41.2002C63.5739 41.434 63.893 41.7717 64.1031 42.1754C64.2705 42.5099 64.3572 42.8785 64.3563 43.252V43.3557C64.332 43.9856 64.058 44.5804 63.594 45.0106C63.1299 45.4407 62.5135 45.6714 61.879 45.6523H58.3951Z" fill="#00D084"/>
<path d="M53.9789 68.3553C53.5568 68.3618 53.1404 68.2583 52.7711 68.0551C52.4019 67.8518 52.0929 67.556 51.8748 67.197C51.6757 66.8549 51.5637 66.4697 51.5486 66.0749C51.5335 65.68 51.6158 65.2875 51.7882 64.9314C51.9923 64.528 52.3066 64.19 52.6953 63.9559C53.0839 63.7218 53.5311 63.6011 53.9856 63.6077H54.01C54.6225 63.5998 55.2156 63.8206 55.672 64.2263C56.1283 64.632 56.4146 65.1931 56.4741 65.7984C56.4741 65.8601 56.4741 65.9219 56.4741 65.9837V66.0918C56.4554 66.5017 56.3323 66.9002 56.1164 67.25C55.8943 67.5937 55.5876 67.8754 55.2252 68.0685C54.8628 68.2615 54.4568 68.3595 54.0456 68.3531L53.9789 68.3553Z" fill="#00D084"/>
<path d="M88.733 79.7427L71.4025 79.6964C71.355 79.6957 71.3079 79.6883 71.2625 79.6743C70.7092 79.4944 70.2373 79.1266 69.9298 78.6356C69.6223 78.1446 69.4989 77.5618 69.5811 76.9894C69.6633 76.4171 69.9459 75.8917 70.3793 75.5056C70.8128 75.1196 71.3693 74.8974 71.9513 74.8782H80.801C80.8224 74.8759 80.844 74.8759 80.8654 74.8782C81.038 74.9066 81.2126 74.9206 81.3876 74.9201C81.5896 74.9204 81.7911 74.9019 81.9897 74.865C82.3436 74.8034 82.6845 74.6834 82.9984 74.5098C83.6067 74.1792 84.0974 73.6703 84.4038 73.0527C84.7101 72.435 84.8171 71.7385 84.7102 71.0582C84.6033 70.3779 84.2877 69.747 83.8064 69.2513C83.3251 68.7556 82.7016 68.4194 82.0208 68.2885H64.5148C64.4735 68.2888 64.4324 68.2836 64.3926 68.2731C63.8694 68.1329 63.407 67.826 63.0763 67.3997C62.7457 66.9733 62.5652 66.451 62.5624 65.9129C62.5596 65.3749 62.7348 64.8508 63.061 64.4211C63.3872 63.9914 63.8464 63.6799 64.3681 63.5343C64.4094 63.5231 64.452 63.5171 64.4948 63.5167H74.8864C75.2382 63.5679 75.5959 63.5634 75.9462 63.5034C76.7671 63.367 77.5078 62.9333 78.0253 62.2862C78.5428 61.639 78.8004 60.8243 78.7482 59.9996C78.6959 59.1749 78.3377 58.3987 77.7426 57.821C77.1475 57.2433 76.3579 56.9051 75.5263 56.8718C75.4782 56.868 75.4299 56.868 75.3819 56.8718C75.336 56.8689 75.29 56.8689 75.2441 56.8718H47.7597C47.7059 56.8729 47.6524 56.8639 47.602 56.8454C47.1301 56.6704 46.7236 56.356 46.4371 55.9446C46.1507 55.5332 45.9982 55.0445 46 54.5444C46.0031 53.9966 46.1891 53.4654 46.5288 53.0338C46.8686 52.6023 47.3429 52.2948 47.8775 52.1596C47.9151 52.149 47.954 52.1438 47.993 52.1441H80.681C80.8854 52.1441 81.0898 52.1574 81.2942 52.1706C81.4609 52.1816 81.6497 52.1816 81.8386 52.1816C82.1271 52.1831 82.4144 52.1438 82.6918 52.0647C83.069 51.9895 83.4299 51.8491 83.7583 51.6499C84.208 51.3435 84.5758 50.9328 84.8298 50.4534C85.0837 49.9741 85.2162 49.4405 85.2158 48.8989C85.2108 48.16 84.9606 47.4433 84.5039 46.8598C84.0472 46.2763 83.4095 45.8586 82.6896 45.6714C82.6166 45.649 82.5424 45.6306 82.4674 45.6162L82.3496 45.5919H81.3498L81.2542 45.6096C81.1521 45.6112 81.0502 45.6216 80.9498 45.6405H70.596C70.5564 45.6405 70.5168 45.6361 70.4782 45.6272C69.9437 45.4908 69.4702 45.1812 69.1329 44.7474C68.7956 44.3136 68.6137 43.7805 68.616 43.2325C68.6183 42.6844 68.8046 42.1528 69.1456 41.7219C69.4865 41.2909 69.9625 40.9852 70.4982 40.8532C70.5346 40.8443 70.5719 40.8399 70.6093 40.8399L88.0976 40.7539L100.071 40.8091C100.246 40.7941 100.422 40.8229 100.582 40.8926C100.743 40.9623 100.883 41.0709 100.991 41.2084C101.097 41.365 101.168 41.542 101.201 41.7278C101.233 41.9137 101.226 42.1042 101.18 42.2872L100.638 45.1198C100.62 45.2144 100.634 45.3121 100.677 45.3982C100.72 45.4843 100.79 45.554 100.877 45.5967C100.964 45.6394 101.062 45.6528 101.158 45.6348C101.253 45.6168 101.339 45.5685 101.404 45.4971C101.778 45.0823 102.082 44.694 102.375 44.319C103.108 43.3858 103.688 42.6468 104.879 42.0489C106.59 41.1907 108.845 40.7561 111.583 40.7561L120.983 40.9348C121.166 40.921 121.35 40.9511 121.519 41.0225C121.688 41.0939 121.837 41.2045 121.954 41.3451C122.07 41.4944 122.151 41.6679 122.189 41.8525C122.228 42.0371 122.223 42.228 122.176 42.4107L122.141 42.596L120.317 50.5645C120.224 51.0461 119.96 51.4783 119.572 51.7823C119.243 52.0923 118.811 52.2726 118.357 52.2897L105.015 52.111C103.055 52.111 101.46 52.6251 100.244 53.6332C99.0291 54.6414 98.2115 56.1262 97.7782 58.0455L93.4811 78.0771C93.3884 78.5302 93.1446 78.9392 92.7891 79.2378C92.4335 79.5364 91.9869 79.7073 91.5215 79.7229L88.733 79.7427Z" fill="#00D084"/>
</svg>
