<svg width="896" height="112" viewBox="0 0 896 112" fill="none" xmlns="http://www.w3.org/2000/svg">
<path d="M2.55078 101.414C2.55078 96.9958 6.1325 93.4141 10.5508 93.4141C14.9691 93.4141 18.5508 96.9958 18.5508 101.414C18.5508 105.832 14.9691 109.414 10.5508 109.414C6.1325 109.414 2.55078 105.832 2.55078 101.414ZM294.183 101.414C294.183 96.9958 297.765 93.4141 302.183 93.4141C306.601 93.4141 310.183 96.9958 310.183 101.414C310.183 105.832 306.601 109.414 302.183 109.414C297.765 109.414 294.183 105.832 294.183 101.414ZM156.691 10.5584L156.678 9.05843L156.691 10.5584ZM10.5508 101.414C9.14648 100.887 9.14652 100.887 9.14655 100.887C9.14657 100.887 9.14661 100.887 9.14664 100.886C9.1467 100.886 9.14677 100.886 9.14685 100.886C9.14701 100.885 9.1472 100.885 9.14742 100.884C9.14786 100.883 9.14842 100.882 9.14912 100.88C9.15051 100.876 9.15241 100.871 9.15482 100.865C9.15964 100.852 9.16652 100.834 9.17547 100.811C9.19336 100.764 9.21954 100.697 9.25418 100.609C9.32346 100.434 9.42657 100.178 9.56485 99.846C9.84141 99.1821 10.2587 98.2153 10.8275 96.988L12.1885 97.6188L13.5494 98.2496C12.9979 99.4394 12.5964 100.37 12.3342 101C12.2031 101.314 12.1068 101.554 12.0441 101.712C12.0127 101.792 11.9897 101.851 11.9749 101.889C11.9675 101.909 11.9622 101.922 11.9589 101.931C11.9573 101.936 11.9561 101.939 11.9555 101.94C11.9552 101.941 11.955 101.942 11.9549 101.942C11.9549 101.942 11.9549 101.942 11.9549 101.942C11.9549 101.942 11.9549 101.942 11.955 101.942C11.955 101.942 11.955 101.941 11.955 101.941C11.9551 101.941 11.9551 101.941 10.5508 101.414ZM15.9454 90.2379L14.6318 89.5136C15.829 87.3423 17.2382 84.9264 18.8746 82.326L20.1442 83.1249L21.4137 83.9238C19.8098 86.4725 18.4299 88.8385 17.2589 90.9622L15.9454 90.2379ZM24.7542 76.226L23.5301 75.3591C25.0625 73.1951 26.7316 70.955 28.5439 68.6645L29.7202 69.5953L30.8965 70.5261C29.1186 72.773 27.4814 74.9704 25.9784 77.0929L24.7542 76.226ZM35.0244 63.245L33.899 62.2532C35.6882 60.223 37.5878 58.1731 39.602 56.1199L40.6728 57.1703L41.7435 58.2207C39.7681 60.2345 37.9048 62.2452 36.1497 64.2367L35.0244 63.245ZM46.6326 51.4132L45.6199 50.3066C47.6278 48.4692 49.7314 46.6416 51.9337 44.8359L52.8848 45.9959L53.8358 47.1559C51.6767 48.9262 49.6141 50.718 47.6453 52.5198L46.6326 51.4132ZM59.4364 40.9182L58.5505 39.7077C60.7618 38.0892 63.0599 36.499 65.4469 34.9467L66.2646 36.2042L67.0824 37.4617C64.7426 38.9833 62.4901 40.5419 60.3223 42.1286L59.4364 40.9182ZM73.3347 31.8797L72.5877 30.5789C74.9612 29.2157 77.4131 27.8928 79.9452 26.6179L80.6198 27.9576L81.2944 29.2974C78.812 30.5473 76.4084 31.8441 74.0818 33.1804L73.3347 31.8797ZM88.1119 24.4375L87.5111 23.0631C90.0218 21.9655 92.6039 20.9161 95.2589 19.9208L95.7854 21.3254L96.3119 22.73C93.7074 23.7063 91.1748 24.7356 88.7127 25.8119L88.1119 24.4375ZM103.615 18.6229L103.162 17.1927C105.775 16.3663 108.453 15.5924 111.196 14.8759L111.575 16.3272L111.954 17.7785C109.26 18.4822 106.631 19.242 104.067 20.0531L103.615 18.6229ZM119.645 14.4318L119.338 12.9636C122.022 12.4021 124.764 11.8949 127.566 11.4461L127.804 12.9272L128.041 14.4083C125.285 14.8497 122.589 15.3483 119.952 15.9001L119.645 14.4318ZM136.015 11.8037L135.845 10.3134C138.556 10.0045 141.319 9.74938 144.135 9.55119L144.24 11.0475L144.346 12.5438C141.573 12.739 138.853 12.9902 136.185 13.2941L136.015 11.8037ZM152.497 10.6383L152.453 9.13891C153.849 9.09823 155.257 9.07128 156.678 9.05843L156.691 10.5584L156.705 12.0583C155.304 12.071 153.916 12.0975 152.54 12.1376L152.497 10.6383ZM156.691 10.5584L156.678 9.05843C158.101 9.04556 159.511 9.04745 160.909 9.06375L160.891 10.5636L160.874 12.0635C159.497 12.0475 158.107 12.0456 156.705 12.0583L156.691 10.5584ZM169.158 10.8343L169.239 9.33646C172.062 9.48949 174.831 9.70245 177.548 9.97201L177.399 11.4647L177.251 12.9573C174.58 12.6922 171.855 12.4827 169.077 12.3321L169.158 10.8343ZM185.629 12.4762L185.848 10.9921C188.659 11.4057 191.41 11.881 194.102 12.4138L193.811 13.8852L193.519 15.3567C190.876 14.8335 188.174 14.3666 185.411 13.9602L185.629 12.4762ZM201.903 15.7028L202.27 14.2482C205.023 14.9417 207.709 15.6962 210.329 16.5065L209.886 17.9396L209.443 19.3726C206.873 18.578 204.238 17.8379 201.537 17.1574L201.903 15.7028ZM217.734 20.6026L218.255 19.1959C220.917 20.1814 223.504 21.2246 226.019 22.3191L225.421 23.6945L224.822 25.0699C222.358 23.9975 219.822 22.9752 217.213 22.0092L217.734 20.6026ZM232.918 27.2133L233.594 25.8741C236.127 27.152 238.578 28.4809 240.95 29.8531L240.199 31.1515L239.448 32.4499C237.125 31.106 234.724 29.8043 232.242 28.5525L232.918 27.2133ZM247.263 35.5141L248.088 34.261C250.467 35.8267 252.756 37.4329 254.958 39.0698L254.063 40.2736L253.168 41.4773C251.011 39.8739 248.769 38.3006 246.439 36.7671L247.263 35.5141ZM260.573 45.4073L261.535 44.2562C263.721 46.082 265.807 47.9317 267.796 49.7926L266.772 50.8881L265.747 51.9837C263.797 50.1598 261.753 48.3473 259.612 46.5584L260.573 45.4073ZM272.676 56.7245L273.759 55.6873C275.747 57.7635 277.62 59.8375 279.383 61.8923L278.245 62.8691L277.106 63.8459C275.377 61.8308 273.541 59.7972 271.592 57.7618L272.676 56.7245ZM283.47 69.3025L284.66 68.3884C286.437 70.7006 288.073 72.9628 289.573 75.1486L288.337 75.9976L287.1 76.8466C285.628 74.7031 284.024 72.4844 282.281 70.2166L283.47 69.3025ZM292.849 82.9699L294.13 82.1898C295.727 84.8128 297.101 87.2504 298.267 89.4413L296.943 90.1461L295.619 90.8509C294.479 88.7079 293.133 86.3207 291.568 83.7499L292.849 82.9699ZM300.601 97.6001L301.971 96.9891C302.521 98.2221 302.924 99.1935 303.191 99.8605C303.324 100.194 303.424 100.451 303.491 100.627C303.524 100.715 303.549 100.783 303.566 100.83C303.575 100.853 303.582 100.871 303.586 100.884C303.589 100.89 303.59 100.895 303.592 100.899C303.592 100.901 303.593 100.902 303.593 100.903C303.594 100.904 303.594 100.905 303.594 100.905C303.594 100.905 303.594 100.905 303.594 100.906C303.594 100.906 303.594 100.906 303.594 100.906C303.594 100.906 303.594 100.906 302.183 101.414C300.772 101.922 300.772 101.922 300.772 101.922C300.772 101.922 300.772 101.922 300.772 101.922C300.772 101.923 300.772 101.923 300.772 101.923C300.772 101.923 300.772 101.923 300.772 101.923C300.772 101.922 300.772 101.922 300.771 101.921C300.771 101.919 300.77 101.916 300.768 101.912C300.765 101.903 300.76 101.889 300.753 101.87C300.738 101.831 300.716 101.772 300.686 101.692C300.625 101.532 300.532 101.292 300.406 100.975C300.152 100.342 299.764 99.4068 299.231 98.2111L300.601 97.6001Z" fill="#00D084"/>
<path d="M294.184 101.414C294.184 96.9958 297.765 93.4141 302.184 93.4141C306.602 93.4141 310.184 96.9958 310.184 101.414C310.184 105.832 306.602 109.414 302.184 109.414C297.765 109.414 294.184 105.832 294.184 101.414ZM585.816 101.414C585.816 96.9958 589.398 93.4141 593.816 93.4141C598.234 93.4141 601.816 96.9958 601.816 101.414C601.816 105.832 598.234 109.414 593.816 109.414C589.398 109.414 585.816 105.832 585.816 101.414ZM448.324 10.5584L448.311 9.05843L448.324 10.5584ZM302.184 101.414C300.779 100.887 300.779 100.887 300.779 100.887C300.779 100.887 300.779 100.887 300.779 100.886C300.78 100.886 300.78 100.886 300.78 100.886C300.78 100.885 300.78 100.885 300.78 100.884C300.781 100.883 300.781 100.882 300.782 100.88C300.783 100.876 300.785 100.871 300.788 100.865C300.792 100.852 300.799 100.834 300.808 100.811C300.826 100.764 300.852 100.697 300.887 100.609C300.956 100.434 301.059 100.178 301.198 99.846C301.474 99.1821 301.892 98.2153 302.46 96.988L303.821 97.6188L305.182 98.2496C304.631 99.4394 304.229 100.37 303.967 101C303.836 101.314 303.74 101.554 303.677 101.712C303.646 101.792 303.623 101.851 303.608 101.889C303.6 101.909 303.595 101.922 303.592 101.931C303.59 101.936 303.589 101.939 303.588 101.94C303.588 101.941 303.588 101.942 303.588 101.942C303.588 101.942 303.588 101.942 303.588 101.942C303.588 101.942 303.588 101.942 303.588 101.942C303.588 101.942 303.588 101.941 303.588 101.941C303.588 101.941 303.588 101.941 302.184 101.414ZM307.578 90.2379L306.265 89.5136C307.462 87.3423 308.871 84.9264 310.507 82.326L311.777 83.1249L313.047 83.9238C311.443 86.4725 310.063 88.8385 308.892 90.9622L307.578 90.2379ZM316.387 76.226L315.163 75.3591C316.695 73.1951 318.364 70.955 320.177 68.6645L321.353 69.5953L322.529 70.5261C320.751 72.773 319.114 74.9704 317.611 77.0929L316.387 76.226ZM326.657 63.245L325.532 62.2532C327.321 60.223 329.221 58.1731 331.235 56.1199L332.306 57.1703L333.376 58.2207C331.401 60.2345 329.538 62.2452 327.783 64.2367L326.657 63.245ZM338.265 51.4132L337.253 50.3066C339.261 48.4692 341.364 46.6416 343.567 44.8359L344.518 45.9959L345.469 47.1559C343.309 48.9262 341.247 50.718 339.278 52.5198L338.265 51.4132ZM351.069 40.9182L350.183 39.7077C352.395 38.0892 354.693 36.499 357.08 34.9467L357.897 36.2042L358.715 37.4617C356.375 38.9833 354.123 40.5419 351.955 42.1286L351.069 40.9182ZM364.968 31.8797L364.22 30.5789C366.594 29.2157 369.046 27.8928 371.578 26.6179L372.253 27.9576L372.927 29.2974C370.445 30.5473 368.041 31.8441 365.715 33.1804L364.968 31.8797ZM379.745 24.4375L379.144 23.0631C381.655 21.9655 384.237 20.9161 386.892 19.9208L387.418 21.3254L387.945 22.73C385.34 23.7063 382.808 24.7356 380.346 25.8119L379.745 24.4375ZM395.247 18.6229L394.795 17.1927C397.408 16.3663 400.086 15.5924 402.829 14.8759L403.208 16.3272L403.587 17.7785C400.893 18.4822 398.264 19.242 395.7 20.0531L395.247 18.6229ZM411.278 14.4318L410.97 12.9636C413.654 12.4021 416.397 11.8949 419.199 11.4461L419.436 12.9272L419.674 14.4083C416.918 14.8497 414.222 15.3483 411.585 15.9001L411.278 14.4318ZM427.648 11.8037L427.478 10.3134C430.189 10.0045 432.952 9.74938 435.768 9.55119L435.873 11.0475L435.979 12.5438C433.206 12.739 430.486 12.9902 427.818 13.2941L427.648 11.8037ZM444.13 10.6383L444.086 9.13891C445.482 9.09823 446.89 9.07128 448.311 9.05843L448.324 10.5584L448.338 12.0583C446.937 12.071 445.549 12.0975 444.173 12.1376L444.13 10.6383ZM448.324 10.5584L448.311 9.05843C449.733 9.04556 451.144 9.04745 452.542 9.06375L452.524 10.5636L452.507 12.0635C451.13 12.0475 449.74 12.0456 448.338 12.0583L448.324 10.5584ZM460.791 10.8343L460.872 9.33646C463.695 9.48949 466.464 9.70245 469.18 9.97201L469.032 11.4647L468.884 12.9573C466.213 12.6922 463.488 12.4827 460.71 12.3321L460.791 10.8343ZM477.262 12.4762L477.48 10.9921C480.292 11.4057 483.043 11.881 485.735 12.4138L485.443 13.8852L485.152 15.3567C482.509 14.8335 479.807 14.3666 477.044 13.9602L477.262 12.4762ZM493.536 15.7028L493.903 14.2482C496.656 14.9417 499.342 15.6962 501.962 16.5065L501.519 17.9396L501.076 19.3726C498.506 18.578 495.871 17.8379 493.17 17.1574L493.536 15.7028ZM509.367 20.6026L509.888 19.1959C512.549 20.1814 515.137 21.2246 517.652 22.3191L517.053 23.6945L516.455 25.0699C513.991 23.9975 511.455 22.9752 508.846 22.0092L509.367 20.6026ZM524.551 27.2133L525.227 25.8741C527.759 27.152 530.211 28.4809 532.583 29.8531L531.832 31.1515L531.081 32.4499C528.757 31.106 526.356 29.8043 523.875 28.5525L524.551 27.2133ZM538.896 35.5141L539.72 34.261C542.1 35.8267 544.389 37.4329 546.591 39.0698L545.696 40.2736L544.801 41.4773C542.644 39.8739 540.402 38.3006 538.071 36.7671L538.896 35.5141ZM552.206 45.4073L553.168 44.2562C555.353 46.082 557.439 47.9317 559.429 49.7926L558.405 50.8881L557.38 51.9837C555.43 50.1598 553.386 48.3473 551.245 46.5584L552.206 45.4073ZM564.308 56.7245L565.392 55.6873C567.379 57.7635 569.253 59.8375 571.016 61.8923L569.877 62.8691L568.739 63.8459C567.01 61.8308 565.173 59.7972 563.225 57.7618L564.308 56.7245ZM575.103 69.3025L576.293 68.3884C578.07 70.7006 579.705 72.9628 581.206 75.1486L579.969 75.9976L578.733 76.8466C577.261 74.7031 575.657 72.4844 573.914 70.2166L575.103 69.3025ZM584.482 82.9699L585.763 82.1898C587.36 84.8128 588.734 87.2504 589.9 89.4413L588.576 90.1461L587.252 90.8509C586.111 88.7079 584.766 86.3207 583.201 83.7499L584.482 82.9699ZM592.234 97.6001L593.604 96.9891C594.154 98.2221 594.557 99.1935 594.824 99.8605C594.957 100.194 595.057 100.451 595.123 100.627C595.157 100.715 595.182 100.783 595.199 100.83C595.208 100.853 595.215 100.871 595.219 100.884C595.221 100.89 595.223 100.895 595.225 100.899C595.225 100.901 595.226 100.902 595.226 100.903C595.226 100.904 595.227 100.905 595.227 100.905C595.227 100.905 595.227 100.905 595.227 100.906C595.227 100.906 595.227 100.906 595.227 100.906C595.227 100.906 595.227 100.906 593.816 101.414C592.405 101.922 592.405 101.922 592.405 101.922C592.405 101.922 592.405 101.922 592.405 101.922C592.405 101.923 592.405 101.923 592.405 101.923C592.405 101.923 592.405 101.923 592.405 101.923C592.405 101.922 592.404 101.922 592.404 101.921C592.404 101.919 592.402 101.916 592.401 101.912C592.398 101.903 592.392 101.889 592.385 101.87C592.371 101.831 592.349 101.772 592.319 101.692C592.258 101.532 592.165 101.292 592.038 100.975C591.785 100.342 591.397 99.4068 590.864 98.2111L592.234 97.6001Z" fill="#00D084"/>
<path d="M585.816 101.414C585.816 96.9958 589.398 93.4141 593.816 93.4141C598.235 93.4141 601.816 96.9958 601.816 101.414C601.816 105.832 598.235 109.414 593.816 109.414C589.398 109.414 585.816 105.832 585.816 101.414ZM886.806 102.053C886.453 102.802 885.56 103.124 884.81 102.771L872.595 97.0234C871.845 96.6707 871.523 95.7771 871.876 95.0275C872.229 94.2779 873.122 93.9562 873.872 94.3089L884.73 99.4182L889.839 88.5602C890.192 87.8106 891.086 87.4889 891.835 87.8416C892.585 88.1943 892.906 89.0879 892.554 89.8375L886.806 102.053ZM739.957 10.5584L739.944 9.05843L739.957 10.5584ZM593.816 101.414C592.412 100.887 592.412 100.887 592.412 100.887C592.412 100.887 592.412 100.887 592.412 100.886C592.412 100.886 592.412 100.886 592.412 100.886C592.413 100.885 592.413 100.885 592.413 100.884C592.413 100.883 592.414 100.882 592.415 100.88C592.416 100.876 592.418 100.871 592.42 100.865C592.425 100.852 592.432 100.834 592.441 100.811C592.459 100.764 592.485 100.697 592.52 100.609C592.589 100.434 592.692 100.178 592.83 99.846C593.107 99.1821 593.524 98.2153 594.093 96.988L595.454 97.6188L596.815 98.2496C596.264 99.4394 595.862 100.37 595.6 101C595.469 101.314 595.372 101.554 595.31 101.712C595.278 101.792 595.255 101.851 595.241 101.889C595.233 101.909 595.228 101.922 595.225 101.931C595.223 101.936 595.222 101.939 595.221 101.94C595.221 101.941 595.221 101.942 595.221 101.942C595.22 101.942 595.22 101.942 595.221 101.942C595.221 101.942 595.221 101.942 595.221 101.942C595.221 101.942 595.221 101.941 595.221 101.941C595.221 101.941 595.221 101.941 593.816 101.414ZM599.211 90.2379L597.897 89.5136C599.095 87.3423 600.504 84.9264 602.14 82.326L603.41 83.1249L604.679 83.9238C603.075 86.4725 601.696 88.8385 600.525 90.9622L599.211 90.2379ZM608.02 76.226L606.796 75.3591C608.328 73.1951 609.997 70.955 611.81 68.6645L612.986 69.5953L614.162 70.5261C612.384 72.773 610.747 74.9704 609.244 77.0929L608.02 76.226ZM618.29 63.245L617.165 62.2532C618.954 60.223 620.853 58.1731 622.868 56.1199L623.938 57.1703L625.009 58.2207C623.034 60.2345 621.17 62.2452 619.415 64.2367L618.29 63.245ZM629.898 51.4132L628.886 50.3066C630.893 48.4692 632.997 46.6416 635.199 44.8359L636.15 45.9959L637.101 47.1559C634.942 48.9262 632.88 50.718 630.911 52.5198L629.898 51.4132ZM642.702 40.9182L641.816 39.7077C644.027 38.0892 646.326 36.499 648.713 34.9467L649.53 36.2042L650.348 37.4617C648.008 38.9833 645.756 40.5419 643.588 42.1286L642.702 40.9182ZM656.6 31.8797L655.853 30.5789C658.227 29.2157 660.679 27.8928 663.211 26.6179L663.885 27.9576L664.56 29.2974C662.078 30.5473 659.674 31.8441 657.347 33.1804L656.6 31.8797ZM671.378 24.4375L670.777 23.0631C673.287 21.9655 675.87 20.9161 678.525 19.9208L679.051 21.3254L679.578 22.73C676.973 23.7063 674.44 24.7356 671.978 25.8119L671.378 24.4375ZM686.88 18.6229L686.428 17.1927C689.041 16.3663 691.718 15.5924 694.462 14.8759L694.841 16.3272L695.22 17.7785C692.526 18.4822 689.897 19.242 687.333 20.0531L686.88 18.6229ZM702.91 14.4318L702.603 12.9636C705.287 12.4021 708.03 11.8949 710.832 11.4461L711.069 12.9272L711.306 14.4083C708.551 14.8497 705.855 15.3483 703.218 15.9001L702.91 14.4318ZM719.281 11.8037L719.111 10.3134C721.822 10.0045 724.585 9.74938 727.401 9.55119L727.506 11.0475L727.611 12.5438C724.838 12.739 722.118 12.9902 719.451 13.2941L719.281 11.8037ZM735.762 10.6383L735.719 9.13891C737.115 9.09823 738.523 9.07128 739.944 9.05843L739.957 10.5584L739.971 12.0583C738.57 12.071 737.182 12.0975 735.806 12.1376L735.762 10.6383ZM739.957 10.5584L739.944 9.05843C741.366 9.04556 742.777 9.04745 744.174 9.06375L744.157 10.5636L744.139 12.0635C742.762 12.0475 741.373 12.0456 739.971 12.0583L739.957 10.5584ZM752.424 10.8343L752.505 9.33646C755.328 9.48949 758.097 9.70245 760.813 9.97201L760.665 11.4647L760.517 12.9573C757.845 12.6922 755.121 12.4827 752.343 12.3321L752.424 10.8343ZM768.895 12.4762L769.113 10.9921C771.925 11.4057 774.676 11.881 777.367 12.4138L777.076 13.8852L776.785 15.3567C774.142 14.8335 771.439 14.3666 768.677 13.9602L768.895 12.4762ZM785.169 15.7028L785.535 14.2482C788.288 14.9417 790.975 15.6962 793.595 16.5065L793.152 17.9396L792.708 19.3726C790.139 18.578 787.504 17.8379 784.803 17.1574L785.169 15.7028ZM801 20.6026L801.52 19.1959C804.182 20.1814 806.77 21.2246 809.285 22.3191L808.686 23.6945L808.088 25.0699C805.623 23.9975 803.088 22.9752 800.479 22.0092L801 20.6026ZM816.184 27.2133L816.859 25.8741C819.392 27.152 821.844 28.4809 824.216 29.8531L823.465 31.1515L822.713 32.4499C820.39 31.106 817.989 29.8043 815.508 28.5525L816.184 27.2133ZM830.529 35.5141L831.353 34.261C833.733 35.8267 836.022 37.4329 838.224 39.0698L837.329 40.2736L836.434 41.4773C834.277 39.8739 832.035 38.3006 829.704 36.7671L830.529 35.5141ZM843.839 45.4073L844.801 44.2562C846.986 46.082 849.072 47.9317 851.062 49.7926L850.037 50.8881L849.013 51.9837C847.063 50.1598 845.018 48.3473 842.877 46.5584L843.839 45.4073ZM855.941 56.7245L857.025 55.6873C859.012 57.7635 860.885 59.8375 862.649 61.8923L861.51 62.8691L860.372 63.8459C858.643 61.8308 856.806 59.7972 854.858 57.7618L855.941 56.7245ZM866.736 69.3025L867.925 68.3884C869.703 70.7006 871.338 72.9628 872.839 75.1486L871.602 75.9976L870.366 76.8466C868.894 74.7031 867.29 72.4844 865.547 70.2166L866.736 69.3025ZM876.115 82.9699L877.396 82.1898C878.993 84.8128 880.367 87.2504 881.533 89.4413L880.209 90.1461L878.885 90.8509C877.744 88.7079 876.399 86.3207 874.834 83.7499L876.115 82.9699ZM883.867 97.6001L885.237 96.9891C885.786 98.2221 886.19 99.1935 886.456 99.8605C886.59 100.194 886.689 100.451 886.756 100.627C886.79 100.715 886.815 100.783 886.832 100.83C886.841 100.853 886.847 100.871 886.852 100.884C886.854 100.89 886.856 100.895 886.857 100.899C886.858 100.901 886.859 100.902 886.859 100.903C886.859 100.904 886.859 100.905 886.86 100.905C886.86 100.905 886.86 100.905 886.86 100.906C886.86 100.906 886.86 100.906 886.86 100.906C886.86 100.906 886.86 100.906 885.449 101.414C884.037 101.922 884.037 101.922 884.037 101.922C884.037 101.922 884.037 101.922 884.037 101.922C884.037 101.923 884.037 101.923 884.038 101.923C884.038 101.923 884.038 101.923 884.038 101.923C884.037 101.922 884.037 101.922 884.037 101.921C884.036 101.919 884.035 101.916 884.034 101.912C884.03 101.903 884.025 101.889 884.018 101.87C884.004 101.831 883.982 101.772 883.951 101.692C883.891 101.532 883.798 101.292 883.671 100.975C883.418 100.342 883.03 99.4068 882.497 98.2111L883.867 97.6001Z" fill="#00D084"/>
</svg>
